<?xml version="1.0" standalone="no"?>
<!DOCTYPE svg PUBLIC "-//W3C//DTD SVG 20010904//EN"
 "http://www.w3.org/TR/2001/REC-SVG-20010904/DTD/svg10.dtd">
<svg version="1.0" xmlns="http://www.w3.org/2000/svg"
 width="512.000000pt" height="512.000000pt" viewBox="0 0 512.000000 512.000000"
 preserveAspectRatio="xMidYMid meet">
<metadata>
Created by potrace 1.11, written by Peter Selinger 2001-2013
</metadata>
<g transform="translate(0.000000,512.000000) scale(0.100000,-0.100000)"
fill="#000000" stroke="none">
<path d="M2379 5116 c-2 -2 -40 -6 -83 -10 -44 -4 -82 -9 -85 -11 -4 -2 -34
-7 -66 -10 -117 -14 -472 -111 -499 -136 -6 -5 -16 -9 -23 -9 -23 0 -237 -103
-348 -167 -358 -209 -661 -502 -885 -857 -185 -294 -326 -678 -364 -991 -4
-27 -10 -81 -15 -120 -9 -70 -7 -483 2 -520 2 -11 8 -49 13 -85 4 -36 8 -67 9
-70 1 -3 5 -25 9 -50 43 -244 188 -628 310 -820 177 -279 301 -429 511 -616
373 -333 865 -558 1350 -619 28 -4 77 -10 110 -15 59 -8 466 -5 515 4 14 2 45
7 70 10 25 4 92 16 150 27 58 12 116 23 130 26 39 7 316 101 369 124 437 197
787 473 1051 829 38 52 73 100 78 105 20 26 124 209 165 290 109 217 197 487
232 715 4 25 9 52 10 61 20 104 27 466 13 609 -66 656 -383 1261 -893 1702
-164 142 -408 295 -610 384 -44 20 -89 39 -100 44 -123 55 -401 128 -585 155
-19 3 -53 7 -75 11 -44 6 -460 15 -466 10z m346 -320 c87 -6 133 -12 245 -32
14 -2 39 -6 55 -9 131 -23 374 -108 534 -189 680 -340 1126 -974 1224 -1743
13 -99 15 -418 3 -498 -24 -173 -30 -203 -58 -315 -49 -200 -154 -448 -269
-632 -257 -413 -654 -739 -1108 -913 -102 -39 -137 -43 -181 -20 -58 30 -59
37 -61 451 -1 333 -3 388 -19 450 -22 85 -59 162 -96 199 -14 14 -25 28 -23
30 2 2 58 12 125 24 480 81 760 315 854 713 27 116 31 153 35 318 4 134 -1
185 -29 305 -22 97 -130 292 -180 327 -6 4 -3 36 8 85 19 80 25 222 13 302 -9
55 -45 192 -56 210 -12 18 -98 16 -175 -4 -114 -30 -216 -77 -369 -170 l-69
-42 -76 19 c-276 66 -549 78 -812 33 -111 -18 -216 -41 -230 -50 -6 -4 -39 11
-73 33 -155 100 -332 174 -449 189 -94 12 -102 9 -121 -45 -61 -178 -67 -318
-22 -517 5 -25 0 -39 -37 -86 -76 -97 -143 -245 -165 -364 -12 -64 -11 -333 2
-416 77 -510 376 -776 958 -854 26 -3 47 -8 47 -11 0 -3 -9 -15 -21 -27 -11
-12 -32 -41 -46 -65 -28 -47 -74 -187 -65 -196 18 -19 -172 -68 -263 -68 -164
-1 -293 74 -390 228 -96 152 -238 245 -365 240 -50 -3 -90 -20 -90 -39 0 -20
41 -62 103 -107 102 -73 166 -156 220 -284 41 -97 70 -142 131 -201 137 -134
354 -180 614 -131 l32 6 0 -204 c0 -134 -4 -214 -12 -230 -24 -54 -98 -77
-169 -53 -773 264 -1355 960 -1480 1772 -35 226 -32 531 7 740 154 823 717
1471 1509 1736 176 59 357 93 545 105 52 3 96 6 97 7 2 3 109 -1 218 -7z"/>
</g>
</svg>
