<?xml version="1.0" standalone="no"?>
<!DOCTYPE svg PUBLIC "-//W3C//DTD SVG 20010904//EN"
 "http://www.w3.org/TR/2001/REC-SVG-20010904/DTD/svg10.dtd">
<svg version="1.0" xmlns="http://www.w3.org/2000/svg"
 width="180.000000pt" height="180.000000pt" viewBox="0 0 180.000000 180.000000"
 preserveAspectRatio="xMidYMid meet">
<metadata>
Created by potrace 1.11, written by Peter Selinger 2001-2013
</metadata>
<g transform="translate(0.000000,180.000000) scale(0.100000,-0.100000)"
fill="#000000" stroke="none">
<path d="M110 1611 c0 -54 -4 -57 -67 -56 l-43 1 0 -218 0 -218 55 0 55 0 0
-55 0 -55 108 0 108 0 -1 53 0 52 50 3 c27 2 52 7 55 12 3 4 5 102 4 217 l-1
208 -49 -1 c-27 0 -52 4 -55 8 -3 5 -5 29 -4 53 l1 45 -108 0 -108 0 0 -49z
m215 -86 c0 -14 -8 -21 -27 -23 -27 -3 -28 -6 -28 -57 0 -51 1 -54 27 -57 l28
-3 0 -132 0 -133 -107 0 -108 0 0 25 c0 21 5 25 28 25 26 0 27 2 25 47 -1 27
-2 51 -2 56 -1 4 -12 7 -26 7 l-25 0 0 135 0 136 108 -3 c99 -3 107 -4 107
-23z"/>
<path d="M163 1338 l2 -53 53 -3 52 -3 0 55 0 56 -54 0 -54 0 1 -52z"/>
<path d="M599 1623 c-1 -21 -1 -46 0 -55 2 -15 -6 -18 -53 -18 l-56 0 0 -55 0
-55 54 0 55 0 -1 -160 0 -160 -54 0 -54 0 0 -55 0 -55 163 0 163 0 -2 48 c-1
26 -2 50 -3 55 0 4 -23 7 -51 7 -41 0 -50 3 -51 18 0 9 -1 131 -1 270 l-1 252
-53 0 -54 0 -1 -37z"/>
<path d="M979 1623 c-1 -21 -1 -46 0 -55 2 -15 -6 -18 -53 -18 l-56 0 0 -55 0
-55 54 0 54 0 0 -160 1 -160 -55 0 -54 0 0 -55 0 -55 163 2 162 3 0 50 0 50
-54 5 -55 5 1 268 0 267 -53 0 -54 0 -1 -37z"/>
<path d="M1359 1628 c-1 -18 0 -43 1 -55 1 -21 -3 -23 -54 -23 l-56 0 0 -54 0
-55 53 -3 52 -3 2 -157 2 -158 -54 0 -55 0 0 -55 0 -55 163 0 163 0 -1 55 0
55 -52 0 c-43 0 -53 3 -54 18 0 9 -1 131 -1 270 l-1 252 -53 0 c-54 0 -54 0
-55 -32z"/>
<path d="M108 738 l-3 -53 -52 0 -53 1 0 -218 0 -218 55 0 55 0 0 -55 0 -55
109 0 108 0 -2 55 -2 55 52 0 c34 0 54 5 57 13 3 10 2 398 -1 418 -1 3 -25 5
-53 5 l-53 -1 0 53 1 52 -107 0 -108 0 -3 -52z m217 -83 c0 -14 -8 -21 -27
-23 -27 -3 -28 -6 -28 -57 0 -51 1 -54 28 -57 l27 -3 0 -130 0 -130 -107 -3
-108 -3 0 26 c0 20 5 25 25 25 15 0 25 6 26 15 5 85 3 90 -24 93 l-27 3 0 135
0 135 108 -3 c99 -3 107 -4 107 -23z"/>
<path d="M167 513 c-2 -5 -5 -29 -6 -55 l-1 -48 55 0 55 0 0 55 0 55 -49 0
c-28 0 -52 -3 -54 -7z"/>
<path d="M599 743 c-1 -27 -1 -51 0 -55 0 -5 -24 -8 -54 -8 l-55 0 0 -54 0
-55 53 -3 52 -3 3 -157 2 -158 -55 0 -55 0 0 -55 0 -55 163 2 162 3 0 50 0 50
-50 3 c-27 2 -52 7 -55 12 -3 4 -4 126 -4 269 l1 261 -53 0 -54 0 -1 -47z"/>
<path d="M979 773 c-1 -10 0 -33 1 -50 2 -36 0 -36 -72 -35 l-38 0 0 -219 0
-219 56 0 56 0 -4 -55 -3 -55 110 0 111 0 -1 53 0 52 55 5 54 5 -1 210 c-1
116 -2 213 -2 216 -1 3 -25 5 -53 5 l-53 -1 0 53 1 52 -108 0 c-96 0 -108 -2
-109 -17z m216 -118 c0 -14 -8 -21 -27 -23 -27 -3 -28 -6 -28 -58 0 -52 1 -54
28 -54 l27 0 0 -135 1 -135 -108 0 -108 0 0 25 c0 20 5 25 24 25 23 0 25 4 28
53 l3 52 53 3 52 3 0 55 0 54 -54 0 -54 0 0 -42 c0 -67 -1 -68 -27 -68 l-25 0
0 135 0 136 108 -3 c99 -3 107 -4 107 -23z"/>
<path d="M1468 738 l-3 -53 -52 1 -53 2 0 -219 0 -219 55 0 55 0 0 -55 0 -56
108 3 107 3 -1 52 -1 52 56 3 55 3 0 215 -1 215 -47 1 c-50 1 -60 -6 -65 -46
0 -5 -12 -10 -26 -10 -24 0 -25 -3 -25 -55 l0 -55 -55 0 -54 0 2 -52 2 -53 53
-3 52 -3 0 55 c0 54 1 56 28 56 l27 0 -1 -122 c-1 -68 -2 -129 -3 -135 -1 -10
-29 -13 -106 -13 l-105 0 0 25 c0 20 5 25 25 25 25 0 27 3 27 60 0 49 -1 50
-27 50 l-25 0 0 135 0 135 108 0 108 0 -1 53 -1 52 -107 3 -106 3 -3 -53z"/>
</g>
</svg>
